<mxfile host="app.diagrams.net" agent="Mozilla/5.0 (Windows NT 10.0; Win64; x64; rv:133.0) Gecko/20100101 Firefox/133.0" version="25.0.3">
  <diagram name="Page-1" id="T4Bg46aXJNvlbMjghzv_">
    <mxGraphModel dx="1050" dy="566" grid="1" gridSize="10" guides="1" tooltips="1" connect="1" arrows="1" fold="1" page="1" pageScale="1" pageWidth="850" pageHeight="1100" math="0" shadow="0">
      <root>
        <mxCell id="0" />
        <mxCell id="1" parent="0" />
        <mxCell id="qs1bGiQeaXVXdlEIbqZ7-5" style="edgeStyle=orthogonalEdgeStyle;rounded=0;orthogonalLoop=1;jettySize=auto;html=1;entryX=0.5;entryY=0;entryDx=0;entryDy=0;" parent="1" source="qs1bGiQeaXVXdlEIbqZ7-1" target="qs1bGiQeaXVXdlEIbqZ7-4" edge="1">
          <mxGeometry relative="1" as="geometry" />
        </mxCell>
        <mxCell id="qs1bGiQeaXVXdlEIbqZ7-1" value="&lt;font style=&quot;font-size: 21px;&quot;&gt;Start&lt;/font&gt;" style="rounded=1;whiteSpace=wrap;html=1;glass=0;shadow=0;arcSize=50;" parent="1" vertex="1">
          <mxGeometry x="370" y="10" width="130" height="60" as="geometry" />
        </mxCell>
        <mxCell id="qs1bGiQeaXVXdlEIbqZ7-7" value="" style="edgeStyle=orthogonalEdgeStyle;rounded=0;orthogonalLoop=1;jettySize=auto;html=1;" parent="1" source="qs1bGiQeaXVXdlEIbqZ7-4" target="qs1bGiQeaXVXdlEIbqZ7-6" edge="1">
          <mxGeometry relative="1" as="geometry" />
        </mxCell>
        <mxCell id="qs1bGiQeaXVXdlEIbqZ7-4" value="&lt;div&gt;&lt;font style=&quot;font-size: 14px;&quot;&gt;Email,&lt;/font&gt;&lt;/div&gt;&lt;div&gt;&lt;font style=&quot;font-size: 14px;&quot;&gt;Login,&lt;/font&gt;&lt;/div&gt;&lt;div&gt;&lt;font style=&quot;font-size: 14px;&quot;&gt;Password&lt;br&gt;&lt;/font&gt;&lt;/div&gt;" style="shape=parallelogram;perimeter=parallelogramPerimeter;whiteSpace=wrap;html=1;fixedSize=1;size=12.5;" parent="1" vertex="1">
          <mxGeometry x="367.5" y="90" width="135" height="60" as="geometry" />
        </mxCell>
        <mxCell id="qs1bGiQeaXVXdlEIbqZ7-21" style="edgeStyle=orthogonalEdgeStyle;rounded=0;orthogonalLoop=1;jettySize=auto;html=1;entryX=0.5;entryY=0;entryDx=0;entryDy=0;" parent="1" source="qs1bGiQeaXVXdlEIbqZ7-6" target="qs1bGiQeaXVXdlEIbqZ7-20" edge="1">
          <mxGeometry relative="1" as="geometry" />
        </mxCell>
        <mxCell id="qs1bGiQeaXVXdlEIbqZ7-6" value="&lt;font style=&quot;font-size: 14px;&quot;&gt;Validation&lt;br&gt;&lt;/font&gt;" style="whiteSpace=wrap;html=1;" parent="1" vertex="1">
          <mxGeometry x="375" y="170" width="120" height="60" as="geometry" />
        </mxCell>
        <mxCell id="qs1bGiQeaXVXdlEIbqZ7-14" value="" style="edgeStyle=orthogonalEdgeStyle;rounded=0;orthogonalLoop=1;jettySize=auto;html=1;" parent="1" source="qs1bGiQeaXVXdlEIbqZ7-10" target="qs1bGiQeaXVXdlEIbqZ7-13" edge="1">
          <mxGeometry relative="1" as="geometry" />
        </mxCell>
        <mxCell id="qs1bGiQeaXVXdlEIbqZ7-10" value="Database Request" style="whiteSpace=wrap;html=1;" parent="1" vertex="1">
          <mxGeometry x="462.81" y="410" width="120" height="60" as="geometry" />
        </mxCell>
        <mxCell id="qs1bGiQeaXVXdlEIbqZ7-16" value="" style="edgeStyle=orthogonalEdgeStyle;rounded=0;orthogonalLoop=1;jettySize=auto;html=1;" parent="1" source="qs1bGiQeaXVXdlEIbqZ7-13" target="qs1bGiQeaXVXdlEIbqZ7-15" edge="1">
          <mxGeometry relative="1" as="geometry" />
        </mxCell>
        <mxCell id="qs1bGiQeaXVXdlEIbqZ7-13" value="&lt;div&gt;Request result&lt;/div&gt;&lt;div&gt;status&lt;br&gt;&lt;/div&gt;" style="shape=parallelogram;perimeter=parallelogramPerimeter;whiteSpace=wrap;html=1;fixedSize=1;size=15;" parent="1" vertex="1">
          <mxGeometry x="462.81" y="490" width="120" height="60" as="geometry" />
        </mxCell>
        <mxCell id="qs1bGiQeaXVXdlEIbqZ7-17" style="edgeStyle=orthogonalEdgeStyle;rounded=0;orthogonalLoop=1;jettySize=auto;html=1;" parent="1" source="qs1bGiQeaXVXdlEIbqZ7-15" target="qs1bGiQeaXVXdlEIbqZ7-18" edge="1">
          <mxGeometry relative="1" as="geometry">
            <mxPoint x="685" y="269.9999999999999" as="targetPoint" />
          </mxGeometry>
        </mxCell>
        <mxCell id="qs1bGiQeaXVXdlEIbqZ7-28" value="&lt;div&gt;No&lt;/div&gt;" style="edgeLabel;html=1;align=center;verticalAlign=middle;resizable=0;points=[];" parent="qs1bGiQeaXVXdlEIbqZ7-17" vertex="1" connectable="0">
          <mxGeometry x="-0.7344" relative="1" as="geometry">
            <mxPoint as="offset" />
          </mxGeometry>
        </mxCell>
        <mxCell id="qs1bGiQeaXVXdlEIbqZ7-30" value="" style="edgeStyle=orthogonalEdgeStyle;rounded=0;orthogonalLoop=1;jettySize=auto;html=1;entryX=0.5;entryY=0;entryDx=0;entryDy=0;" parent="1" target="qs1bGiQeaXVXdlEIbqZ7-29" edge="1">
          <mxGeometry relative="1" as="geometry">
            <mxPoint x="480.00000000000045" y="610.0000000000002" as="sourcePoint" />
            <mxPoint x="440" y="700" as="targetPoint" />
            <Array as="points">
              <mxPoint x="435" y="610" />
            </Array>
          </mxGeometry>
        </mxCell>
        <mxCell id="qs1bGiQeaXVXdlEIbqZ7-31" value="Yes" style="edgeLabel;html=1;align=center;verticalAlign=middle;resizable=0;points=[];" parent="qs1bGiQeaXVXdlEIbqZ7-30" vertex="1" connectable="0">
          <mxGeometry x="-0.46" y="3" relative="1" as="geometry">
            <mxPoint as="offset" />
          </mxGeometry>
        </mxCell>
        <mxCell id="qs1bGiQeaXVXdlEIbqZ7-15" value="result status &lt;br&gt;is success?" style="rhombus;whiteSpace=wrap;html=1;" parent="1" vertex="1">
          <mxGeometry x="460" y="570" width="125.62" height="80" as="geometry" />
        </mxCell>
        <mxCell id="qs1bGiQeaXVXdlEIbqZ7-19" style="edgeStyle=orthogonalEdgeStyle;rounded=0;orthogonalLoop=1;jettySize=auto;html=1;" parent="1" source="qs1bGiQeaXVXdlEIbqZ7-18" edge="1">
          <mxGeometry relative="1" as="geometry">
            <mxPoint x="440" y="80" as="targetPoint" />
            <Array as="points">
              <mxPoint x="720" y="80" />
            </Array>
          </mxGeometry>
        </mxCell>
        <mxCell id="qs1bGiQeaXVXdlEIbqZ7-18" value="Warning (&quot;The error occurred, please try again&quot;)" style="rounded=0;whiteSpace=wrap;html=1;" parent="1" vertex="1">
          <mxGeometry x="657.81" y="509.9999999999999" width="120" height="60" as="geometry" />
        </mxCell>
        <mxCell id="qs1bGiQeaXVXdlEIbqZ7-22" style="edgeStyle=orthogonalEdgeStyle;rounded=0;orthogonalLoop=1;jettySize=auto;html=1;entryX=0.5;entryY=0;entryDx=0;entryDy=0;" parent="1" source="qs1bGiQeaXVXdlEIbqZ7-20" target="qs1bGiQeaXVXdlEIbqZ7-10" edge="1">
          <mxGeometry relative="1" as="geometry">
            <Array as="points">
              <mxPoint x="523" y="290" />
            </Array>
          </mxGeometry>
        </mxCell>
        <mxCell id="qs1bGiQeaXVXdlEIbqZ7-26" value="&lt;div&gt;Yes&lt;/div&gt;" style="edgeLabel;html=1;align=center;verticalAlign=middle;resizable=0;points=[];" parent="qs1bGiQeaXVXdlEIbqZ7-22" vertex="1" connectable="0">
          <mxGeometry x="-0.8149" relative="1" as="geometry">
            <mxPoint as="offset" />
          </mxGeometry>
        </mxCell>
        <mxCell id="qs1bGiQeaXVXdlEIbqZ7-23" style="edgeStyle=orthogonalEdgeStyle;rounded=0;orthogonalLoop=1;jettySize=auto;html=1;" parent="1" source="qs1bGiQeaXVXdlEIbqZ7-20" target="qs1bGiQeaXVXdlEIbqZ7-24" edge="1">
          <mxGeometry relative="1" as="geometry">
            <mxPoint x="240" y="190" as="targetPoint" />
          </mxGeometry>
        </mxCell>
        <mxCell id="qs1bGiQeaXVXdlEIbqZ7-27" value="&lt;div&gt;No&lt;/div&gt;" style="edgeLabel;html=1;align=center;verticalAlign=middle;resizable=0;points=[];" parent="qs1bGiQeaXVXdlEIbqZ7-23" vertex="1" connectable="0">
          <mxGeometry x="-0.528" y="-3" relative="1" as="geometry">
            <mxPoint as="offset" />
          </mxGeometry>
        </mxCell>
        <mxCell id="qs1bGiQeaXVXdlEIbqZ7-20" value="&lt;div&gt;Input data&lt;/div&gt;&lt;div&gt;is valid?&lt;br&gt;&lt;/div&gt;" style="rhombus;whiteSpace=wrap;html=1;" parent="1" vertex="1">
          <mxGeometry x="387.5" y="250" width="95" height="80" as="geometry" />
        </mxCell>
        <mxCell id="qs1bGiQeaXVXdlEIbqZ7-25" style="edgeStyle=orthogonalEdgeStyle;rounded=0;orthogonalLoop=1;jettySize=auto;html=1;" parent="1" source="qs1bGiQeaXVXdlEIbqZ7-24" edge="1">
          <mxGeometry relative="1" as="geometry">
            <mxPoint x="430" y="80" as="targetPoint" />
            <Array as="points">
              <mxPoint x="240" y="80" />
            </Array>
          </mxGeometry>
        </mxCell>
        <mxCell id="qs1bGiQeaXVXdlEIbqZ7-24" value="Warning (&quot;Your {invalid element} is invalid&quot;)" style="rounded=0;whiteSpace=wrap;html=1;" parent="1" vertex="1">
          <mxGeometry x="170" y="170" width="120" height="60" as="geometry" />
        </mxCell>
        <mxCell id="qs1bGiQeaXVXdlEIbqZ7-33" value="" style="edgeStyle=orthogonalEdgeStyle;rounded=0;orthogonalLoop=1;jettySize=auto;html=1;" parent="1" source="qs1bGiQeaXVXdlEIbqZ7-29" target="qs1bGiQeaXVXdlEIbqZ7-32" edge="1">
          <mxGeometry relative="1" as="geometry" />
        </mxCell>
        <mxCell id="qs1bGiQeaXVXdlEIbqZ7-29" value="Alarm(&quot;You have been registered&quot;)" style="whiteSpace=wrap;html=1;" parent="1" vertex="1">
          <mxGeometry x="375" y="690" width="120" height="60" as="geometry" />
        </mxCell>
        <mxCell id="qs1bGiQeaXVXdlEIbqZ7-35" style="edgeStyle=orthogonalEdgeStyle;rounded=0;orthogonalLoop=1;jettySize=auto;html=1;entryX=0.5;entryY=0;entryDx=0;entryDy=0;" parent="1" source="qs1bGiQeaXVXdlEIbqZ7-32" target="qs1bGiQeaXVXdlEIbqZ7-34" edge="1">
          <mxGeometry relative="1" as="geometry" />
        </mxCell>
        <mxCell id="qs1bGiQeaXVXdlEIbqZ7-32" value="Redirect to account" style="whiteSpace=wrap;html=1;" parent="1" vertex="1">
          <mxGeometry x="375" y="770" width="120" height="60" as="geometry" />
        </mxCell>
        <mxCell id="qs1bGiQeaXVXdlEIbqZ7-34" value="&lt;div&gt;End&lt;/div&gt;" style="rounded=1;whiteSpace=wrap;html=1;glass=0;shadow=0;arcSize=50;" parent="1" vertex="1">
          <mxGeometry x="370" y="850" width="130" height="60" as="geometry" />
        </mxCell>
      </root>
    </mxGraphModel>
  </diagram>
</mxfile>
